<svg width="69" height="75" viewBox="0 0 69 75" fill="none" xmlns="http://www.w3.org/2000/svg">
<g clip-path="url(#clip0_61_694)">
<path d="M43.9434 0.00680898C43.1736 -0.025491 42.3983 0.057009 41.6758 0.256809C40.2024 0.664359 38.9026 1.45556 37.8321 2.59665C37.3693 3.0899 36.5448 4.41151 36.2871 5.07322C35.873 6.13678 35.6634 7.40549 35.7071 8.57517C35.7361 9.35191 35.6676 9.00517 37.8496 19.7392C38.7594 24.2146 39.5223 27.8802 39.543 27.8857C39.5745 27.8937 54.6172 23.8305 56.9453 23.1845C58.2418 22.8248 59.3567 22.2299 60.334 21.376C61.0487 20.7514 61.3897 20.3346 61.9551 19.3974C62.3794 18.6942 62.5007 18.4413 62.6895 17.872C63.7128 14.7862 62.9332 11.6395 60.5801 9.35642C60.0362 8.8287 58.5732 7.91283 57.8692 7.65915C56.2029 7.05875 54.7017 6.99494 52.8965 7.44626L51.8242 7.71384L51.5977 6.66501C51.3644 5.58643 51.1515 4.96872 50.7774 4.28806C49.8444 2.59066 48.1439 1.16802 46.1817 0.444309C45.4775 0.184589 44.7132 0.039119 43.9434 0.00680898ZM31.1211 0.555637C28.6391 1.03766 26.6025 2.16132 25.0137 3.93064C22.83 6.36247 21.7383 9.61496 21.7383 13.6845V14.7998C21.7383 14.9983 21.7629 15.1724 21.8125 15.3213L21.8867 16.5869C18.2142 13.9565 14.9144 12.6416 11.9863 12.6416C9.70339 12.6416 7.51997 13.4097 5.43555 14.9482C3.45039 16.3875 1.98593 18.2739 1.04297 20.6064C0.348169 22.2442 0 23.8827 0 25.5205C0 30.533 2.87976 34.355 8.63672 36.9853L9.75195 37.5049C3.25054 40.4826 0 44.5032 0 49.5654C0 52.9898 1.19203 55.9925 3.57422 58.5732C5.95642 61.1539 8.78503 62.4443 12.0605 62.4443C15.0383 62.4443 17.9918 61.3772 20.9199 59.2431L21.8867 58.499C21.7875 59.4916 21.7383 60.6816 21.7383 62.0713C21.7383 65.7934 22.9038 68.833 25.2363 71.1904C27.5689 73.5478 30.5224 74.7275 34.0957 74.7275C38.0164 74.7275 41.056 73.4986 43.2148 71.042C45.3737 68.5853 46.4531 65.3717 46.4531 61.4013V58.499C50.1257 61.1293 53.4008 62.4443 56.2793 62.4443C59.5052 62.4443 62.2969 61.1416 64.6543 58.5361C67.0117 55.9306 68.1914 52.9402 68.1914 49.5654C68.1914 44.5032 65.3136 40.6567 59.5566 38.0263L58.4395 37.5049C64.9409 34.5271 68.1914 30.533 68.1914 25.5205C68.1914 25.0043 68.1613 24.4954 68.1016 23.9931C66.9354 24.9835 65.6119 25.7916 64.1992 26.3935C63.5879 32.02 56.9532 35.3775 44.295 36.4638V38.622C50.8956 39.168 55.8708 40.36 59.2207 42.1963C62.5707 44.0325 64.2461 46.4884 64.2461 49.5654C64.2461 51.7987 63.4392 53.8469 61.8262 55.708C60.2133 57.5691 58.3392 58.499 56.2051 58.499C51.1926 58.499 45.8589 54.2797 40.2012 45.8428L38.2657 46.9599C41.0945 52.7169 42.5079 57.5814 42.5079 61.5517C42.5079 67.7057 39.7038 70.7822 34.0957 70.7822C31.4158 70.7822 29.3307 69.9629 27.8418 68.3252C26.4026 66.5882 25.6836 64.4047 25.6836 61.7744C25.6836 57.8041 27.0989 52.8658 29.9278 46.9599L27.9922 45.8428C22.3345 54.2797 16.9989 58.499 11.9864 58.499C9.95157 58.499 8.10208 57.6183 6.4395 55.8564C4.77693 54.0946 3.94731 51.9972 3.94731 49.5654C3.94731 43.4114 10.5714 39.7635 23.8223 38.622V36.4638C10.5714 35.372 3.94731 31.7241 3.94731 25.5205C3.94731 23.3368 4.74004 21.3009 6.32817 19.415C7.9163 17.5291 9.80269 16.5869 11.9864 16.5869C16.8996 16.5869 22.2353 20.7797 27.9922 29.167L29.9278 28.126C27.0989 22.3194 25.6836 17.3565 25.6836 13.2373C25.6836 10.6069 26.4026 8.42352 27.8418 6.6865C28.5946 5.85849 29.5014 5.24042 30.5586 4.83103C30.5434 3.37131 30.728 1.94698 31.1211 0.555637Z" fill="#BA0B2F"/>
</g>
<defs>
<clipPath id="clip0_61_694">
<rect width="68.1914" height="74.7275" fill="white"/>
</clipPath>
</defs>
</svg>
